<svg xmlns="http://www.w3.org/2000/svg" viewBox="0 0 206.346 112.73"><defs><style>.a,.b,.g{fill:none;}.a,.c,.e,.f,.g,.h{stroke:#231f20;}.a,.b,.c,.g{stroke-linecap:round;}.a,.b,.c{stroke-linejoin:round;}.a,.g{stroke-width:2px;}.b{stroke:#fff;}.c,.f{fill:#fff;}.d,.e{fill:#231f20;}.h{fill:#ccc;}</style></defs><title>wiring-kit-for-p-bass</title><polyline class="a" points="16.361 13.079 87.976 13.079 87.976 67.762 89.86 67.762"/><polyline class="a" points="56.414 58.509 66.948 58.509 66.948 90.336 115.837 90.336 115.837 80.284"/><polyline class="b" points="56.414 58.509 66.948 58.509 66.948 90.336 115.837 90.336 115.837 80.284"/><path class="a" d="M103.506,84.854a7.09,7.09,0,0,1,13.839,3.092" transform="translate(-1.399 -23.497)"/><path class="a" d="M141.749,101.994h-9.2a3.952,3.952,0,0,1-7.9,0h-6.07" transform="translate(-1.399 -23.497)"/><polyline class="a" points="55.975 50.059 67.826 50.059 67.826 19.772 27.883 19.772"/><polyline class="b" points="55.975 50.059 67.826 50.059 67.826 19.772 27.883 19.772"/><path class="c" d="M29.468,29.288a1.975,1.975,0,0,0-1.975-1.975H19.3a3.759,3.759,0,0,0-7.466,0h-7.9A1.975,1.975,0,0,0,1.95,29.288V75.077a1.934,1.934,0,0,0,.027.265H1.9a1.975,1.975,0,0,0,1.975,1.975h7.9a3.76,3.76,0,0,0,7.467,0h8.2a2.343,2.343,0,0,0,2.026-2.24Z" transform="translate(-1.399 -23.497)"/><path class="c" d="M57.3,52.277A1.976,1.976,0,0,0,55.326,50.3h-8.2a3.759,3.759,0,0,0-7.465,0h-7.9a1.975,1.975,0,0,0-1.975,1.975V98.065a1.775,1.775,0,0,0,.027.266h-.079a1.976,1.976,0,0,0,1.975,1.976h7.9a3.759,3.759,0,0,0,7.466,0h8.2a1.968,1.968,0,0,0,1.95-1.724,1.931,1.931,0,0,0,.077-.518Z" transform="translate(-1.399 -23.497)"/><polyline class="a" points="97.633 60.744 97.633 18.203 173.061 18.209 173.061 82.36"/><polyline class="a" points="92.958 62.353 92.958 13.339 191.231 13.339 191.231 31.295"/><path class="d" d="M117.763,56.994a.473.473,0,0,1,.48-.5.5.5,0,1,1-.48.5Z" transform="translate(-1.399 -23.497)"/><path class="d" d="M122.817,54.756c0,1.766-.655,2.742-1.807,2.742-1.015,0-1.7-.951-1.719-2.67,0-1.744.752-2.7,1.807-2.7C122.193,52.125,122.817,53.1,122.817,54.756ZM120,54.835c0,1.352.416,2.12,1.055,2.12.72,0,1.064-.84,1.064-2.167,0-1.28-.328-2.119-1.056-2.119C120.442,52.669,120,53.42,120,54.835Z" transform="translate(-1.399 -23.497)"/><path class="d" d="M125.642,57.41V56h-2.415v-.464l2.319-3.318h.76v3.23h.727V56h-.727V57.41Zm0-1.967V53.708q0-.407.024-.815h-.024c-.16.3-.288.527-.432.767l-1.271,1.767v.016Z" transform="translate(-1.399 -23.497)"/><path class="d" d="M130.945,52.213v.464l-2.262,4.733h-.728l2.254-4.6V52.8h-2.542v-.584Z" transform="translate(-1.399 -23.497)"/><path class="d" d="M131.9,54.588c0-.4-.007-.728-.031-1.048h.615l.033.624h.023a1.335,1.335,0,0,1,1.216-.712,1.143,1.143,0,0,1,1.095.776h.016a1.6,1.6,0,0,1,.432-.5,1.317,1.317,0,0,1,.855-.272c.512,0,1.272.336,1.272,1.679V57.41h-.688V55.219c0-.743-.272-1.191-.84-1.191a.914.914,0,0,0-.832.639,1.2,1.2,0,0,0-.055.353v2.39h-.688V55.091c0-.615-.271-1.063-.807-1.063a.96.96,0,0,0-.871.7.974.974,0,0,0-.057.344V57.41H131.9Z" transform="translate(-1.399 -23.497)"/><path class="d" d="M138.6,52.021h2.9v.584H139.29V54.4h2.039v.576H139.29V57.41H138.6Z" transform="translate(-1.399 -23.497)"/><path class="d" d="M116.654,65.266a2.593,2.593,0,0,1-1.112.224,1.839,1.839,0,0,1-1.927-1.975,1.967,1.967,0,0,1,2.079-2.055,2.344,2.344,0,0,1,.975.2l-.159.544a1.633,1.633,0,0,0-.816-.184,1.459,1.459,0,0,0-.024,2.911,1.984,1.984,0,0,0,.864-.193Z" transform="translate(-1.399 -23.497)"/><path class="d" d="M119.622,65.41l-.056-.488h-.024a1.442,1.442,0,0,1-1.184.576,1.1,1.1,0,0,1-1.183-1.111c0-.936.832-1.448,2.327-1.44v-.079a.8.8,0,0,0-.879-.9,1.929,1.929,0,0,0-1.008.288l-.16-.464a2.4,2.4,0,0,1,1.272-.344c1.183,0,1.471.808,1.471,1.584v1.446a5.452,5.452,0,0,0,.064.928Zm-.1-1.975c-.768-.016-1.639.12-1.639.872a.623.623,0,0,0,.663.672.963.963,0,0,0,.936-.648.735.735,0,0,0,.04-.224Z" transform="translate(-1.399 -23.497)"/><path class="d" d="M121.335,62.8c0-.5-.016-.9-.032-1.264h.632l.032.664h.016a1.522,1.522,0,0,1,1.375-.752A1.754,1.754,0,0,1,125,63.419a1.832,1.832,0,0,1-1.759,2.079,1.358,1.358,0,0,1-1.191-.607h-.016v2.1h-.7Zm.7,1.031a1.683,1.683,0,0,0,.031.288,1.086,1.086,0,0,0,1.056.823c.744,0,1.175-.607,1.175-1.495,0-.775-.407-1.439-1.151-1.439a1.122,1.122,0,0,0-1.063.872,1.134,1.134,0,0,0-.048.287Z" transform="translate(-1.399 -23.497)"/><path class="d" d="M128.029,65.41l-.055-.488h-.024a1.442,1.442,0,0,1-1.183.576,1.1,1.1,0,0,1-1.184-1.111c0-.936.832-1.448,2.327-1.44v-.079a.8.8,0,0,0-.88-.9,1.935,1.935,0,0,0-1.008.288l-.159-.464a2.4,2.4,0,0,1,1.272-.344c1.182,0,1.47.808,1.47,1.584v1.446a5.345,5.345,0,0,0,.065.928Zm-.1-1.975c-.768-.016-1.639.12-1.639.872a.623.623,0,0,0,.663.672.964.964,0,0,0,.936-.648.735.735,0,0,0,.04-.224Z" transform="translate(-1.399 -23.497)"/><path class="d" d="M132.5,65.266a2.588,2.588,0,0,1-1.111.224,1.839,1.839,0,0,1-1.927-1.975,1.966,1.966,0,0,1,2.079-2.055,2.357,2.357,0,0,1,.976.2l-.161.544a1.628,1.628,0,0,0-.815-.184,1.459,1.459,0,0,0-.024,2.911,1.984,1.984,0,0,0,.864-.193Z" transform="translate(-1.399 -23.497)"/><path class="d" d="M134.11,60.453a.436.436,0,0,1-.871,0,.429.429,0,0,1,.44-.44A.418.418,0,0,1,134.11,60.453Zm-.783,4.957V61.54h.7v3.87Z" transform="translate(-1.399 -23.497)"/><path class="d" d="M136.047,60.429V61.54h1.007v.536h-1.007v2.087c0,.48.136.752.527.752a1.5,1.5,0,0,0,.407-.049l.033.528a1.721,1.721,0,0,1-.623.1.974.974,0,0,1-.76-.3,1.432,1.432,0,0,1-.273-1.007V62.076h-.6V61.54h.6v-.927Z" transform="translate(-1.399 -23.497)"/><path class="d" d="M141.3,63.443a1.891,1.891,0,0,1-1.927,2.055,1.84,1.84,0,0,1-1.855-1.991,1.89,1.89,0,0,1,1.919-2.055A1.833,1.833,0,0,1,141.3,63.443Zm-3.071.04c0,.848.489,1.487,1.176,1.487.671,0,1.175-.631,1.175-1.5,0-.655-.327-1.487-1.159-1.487S138.23,62.748,138.23,63.483Z" transform="translate(-1.399 -23.497)"/><path class="d" d="M142.19,62.748c0-.456-.007-.848-.031-1.208h.615l.025.76h.031a1.162,1.162,0,0,1,1.072-.848.725.725,0,0,1,.2.025v.663a1.064,1.064,0,0,0-.24-.024.988.988,0,0,0-.944.9,1.975,1.975,0,0,0-.031.327V65.41h-.7Z" transform="translate(-1.399 -23.497)"/><path class="d" d="M183.9,76.835a5.016,5.016,0,0,1-1.655.3,2.532,2.532,0,0,1-2.767-2.719A2.7,2.7,0,0,1,182.4,71.63a3.349,3.349,0,0,1,1.343.247l-.168.568a2.79,2.79,0,0,0-1.191-.232,2.016,2.016,0,0,0-2.167,2.167,1.975,1.975,0,0,0,2.079,2.175,2.27,2.27,0,0,0,.928-.144V74.8h-1.1v-.56H183.9Z" transform="translate(-1.399 -23.497)"/><path class="d" d="M184.943,74.412c0-.455-.007-.848-.032-1.207h.616l.024.759h.032a1.162,1.162,0,0,1,1.071-.847.761.761,0,0,1,.2.024v.664a1.053,1.053,0,0,0-.24-.025.987.987,0,0,0-.943.9,1.982,1.982,0,0,0-.032.328v2.063h-.7Z" transform="translate(-1.399 -23.497)"/><path class="d" d="M190.981,75.108a1.891,1.891,0,0,1-1.926,2.055,1.841,1.841,0,0,1-1.856-1.991,1.89,1.89,0,0,1,1.919-2.055A1.833,1.833,0,0,1,190.981,75.108Zm-3.07.04c0,.847.487,1.487,1.176,1.487.671,0,1.175-.632,1.175-1.5,0-.656-.328-1.487-1.159-1.487S187.911,74.412,187.911,75.148Z" transform="translate(-1.399 -23.497)"/><path class="d" d="M195.109,76.02c0,.4.008.751.033,1.055h-.624l-.04-.632h-.016a1.456,1.456,0,0,1-1.279.72c-.608,0-1.335-.336-1.335-1.695V73.205h.7v2.143c0,.735.223,1.231.863,1.231a.99.99,0,0,0,.992-1V73.205h.7Z" transform="translate(-1.399 -23.497)"/><path class="d" d="M196.279,74.252c0-.4-.008-.728-.032-1.047h.624l.04.64h.016a1.422,1.422,0,0,1,1.279-.728c.536,0,1.367.32,1.367,1.647v2.311h-.7V74.844c0-.624-.232-1.143-.9-1.143a1,1,0,0,0-.944.719,1.011,1.011,0,0,0-.049.328v2.327h-.7Z" transform="translate(-1.399 -23.497)"/><path class="d" d="M204.062,71.4v4.677c0,.344.007.736.032,1h-.632l-.032-.672h-.016a1.431,1.431,0,0,1-1.319.76,1.765,1.765,0,0,1-1.656-1.967,1.851,1.851,0,0,1,1.736-2.079,1.293,1.293,0,0,1,1.167.591h.015V71.4Zm-.705,3.382a1.241,1.241,0,0,0-.031-.3,1.035,1.035,0,0,0-1.015-.816c-.728,0-1.16.64-1.16,1.5,0,.783.384,1.431,1.143,1.431a1.058,1.058,0,0,0,1.032-.84,1.216,1.216,0,0,0,.031-.3Z" transform="translate(-1.399 -23.497)"/><path class="d" d="M178.931,80.093v1.112h1.007v.536h-1.007v2.086c0,.48.136.752.528.752a1.557,1.557,0,0,0,.407-.048l.032.528a1.715,1.715,0,0,1-.624.1.973.973,0,0,1-.758-.3,1.428,1.428,0,0,1-.273-1.007V81.741h-.6v-.536h.6v-.928Z" transform="translate(-1.399 -23.497)"/><path class="d" d="M184.186,83.108a1.892,1.892,0,0,1-1.927,2.055,1.841,1.841,0,0,1-1.856-1.991,1.89,1.89,0,0,1,1.919-2.055A1.833,1.833,0,0,1,184.186,83.108Zm-3.071.04c0,.847.488,1.487,1.176,1.487.671,0,1.175-.632,1.175-1.5,0-.656-.328-1.487-1.159-1.487S181.115,82.412,181.115,83.148Z" transform="translate(-1.399 -23.497)"/><path class="d" d="M186.8,79.758a6.749,6.749,0,0,1,1.271-.112,2.227,2.227,0,0,1,1.48.392,1.127,1.127,0,0,1,.447.951,1.279,1.279,0,0,1-.911,1.183v.016a1.389,1.389,0,0,1,1.111,1.352,1.449,1.449,0,0,1-.456,1.079,2.7,2.7,0,0,1-1.862.5,8.137,8.137,0,0,1-1.08-.064Zm.7,2.206h.632c.735,0,1.167-.383,1.167-.9,0-.632-.479-.879-1.184-.879a3.082,3.082,0,0,0-.615.047Zm0,2.583a3.713,3.713,0,0,0,.583.032c.72,0,1.384-.264,1.384-1.047,0-.736-.632-1.04-1.392-1.04h-.575Z" transform="translate(-1.399 -23.497)"/><path class="d" d="M191.107,82.412c0-.455-.007-.848-.032-1.207h.616l.024.759h.032a1.162,1.162,0,0,1,1.071-.847.775.775,0,0,1,.2.024v.664a1.069,1.069,0,0,0-.241-.025.987.987,0,0,0-.943.9,1.982,1.982,0,0,0-.032.328v2.063h-.7Z" transform="translate(-1.399 -23.497)"/><path class="d" d="M194.539,80.117a.436.436,0,0,1-.872,0,.429.429,0,0,1,.44-.439A.418.418,0,0,1,194.539,80.117Zm-.784,4.958v-3.87h.7v3.87Z" transform="translate(-1.399 -23.497)"/><path class="d" d="M198.97,79.4v4.677c0,.344.008.736.031,1h-.631l-.032-.672h-.017a1.431,1.431,0,0,1-1.319.76,1.764,1.764,0,0,1-1.654-1.967,1.85,1.85,0,0,1,1.734-2.079,1.294,1.294,0,0,1,1.168.591h.016V79.4Zm-.7,3.382a1.2,1.2,0,0,0-.033-.3,1.033,1.033,0,0,0-1.014-.816c-.729,0-1.16.64-1.16,1.5,0,.783.383,1.431,1.143,1.431a1.057,1.057,0,0,0,1.031-.84,1.169,1.169,0,0,0,.033-.3Z" transform="translate(-1.399 -23.497)"/><path class="d" d="M203.474,81.205c-.017.28-.033.591-.033,1.063v2.247a2.226,2.226,0,0,1-.551,1.767,2.053,2.053,0,0,1-1.408.464,2.5,2.5,0,0,1-1.287-.32l.176-.536a2.181,2.181,0,0,0,1.136.3c.719,0,1.247-.376,1.247-1.351v-.432h-.017a1.38,1.38,0,0,1-1.23.648,1.73,1.73,0,0,1-1.648-1.887,1.858,1.858,0,0,1,1.744-2.055,1.287,1.287,0,0,1,1.207.672h.016l.031-.584Zm-.728,1.527a1.032,1.032,0,0,0-.04-.32,1.014,1.014,0,0,0-.983-.744c-.672,0-1.152.568-1.152,1.464,0,.76.384,1.391,1.143,1.391a1.027,1.027,0,0,0,.975-.72,1.22,1.22,0,0,0,.057-.375Z" transform="translate(-1.399 -23.497)"/><path class="d" d="M205,83.268a1.24,1.24,0,0,0,1.327,1.343,2.537,2.537,0,0,0,1.071-.2l.12.5a3.131,3.131,0,0,1-1.287.24,1.8,1.8,0,0,1-1.9-1.951,1.879,1.879,0,0,1,1.815-2.087,1.64,1.64,0,0,1,1.6,1.823,2.921,2.921,0,0,1-.023.328Zm2.062-.5a1,1,0,0,0-.975-1.143,1.165,1.165,0,0,0-1.079,1.143Z" transform="translate(-1.399 -23.497)"/><path class="e" d="M103.415,96.927V92.466h12.929a2.231,2.231,0,1,1,0,4.461Z" transform="translate(-1.399 -23.497)"/><path class="e" d="M103.415,89.853V85.392h12.929a2.231,2.231,0,1,1,0,4.461Z" transform="translate(-1.399 -23.497)"/><path class="e" d="M103.415,104V99.541h12.929a2.231,2.231,0,1,1,0,4.461Z" transform="translate(-1.399 -23.497)"/><path class="f" d="M102.083,84.232A10.527,10.527,0,1,1,91.555,94.757,10.525,10.525,0,0,1,102.083,84.232Z" transform="translate(-1.399 -23.497)"/><path class="d" d="M101.362,99.119,98.9,91.57h1.053l1.176,3.718c.325,1.02.605,1.938.807,2.823h.022c.213-.874.526-1.826.862-2.812L104.1,91.57h1.042l-2.7,7.549Z" transform="translate(-1.399 -23.497)"/><path class="e" d="M155.435,92.214v4.461H142.506a2.231,2.231,0,1,1,0-4.461Z" transform="translate(-1.399 -23.497)"/><path class="e" d="M155.435,99.289v4.461H142.506a2.231,2.231,0,1,1,0-4.461Z" transform="translate(-1.399 -23.497)"/><path class="f" d="M155.435,85.14V89.6H142.506a2.231,2.231,0,1,1,0-4.461Z" transform="translate(-1.399 -23.497)"/><path class="f" d="M156.768,104.91A10.527,10.527,0,1,1,167.3,94.384,10.526,10.526,0,0,1,156.768,104.91Z" transform="translate(-1.399 -23.497)"/><path class="d" d="M156.168,92.023h-2.3V91.2h5.588v.828h-2.307v6.721h-.985Z" transform="translate(-1.399 -23.497)"/><path class="g" d="M125.815,78.672c-.4,2.564-4.094,8.558-8.47,9.274" transform="translate(-1.399 -23.497)"/><path class="g" d="M131.171,78.672c1.311,7.363,4.3,12.444,9.1,15.773" transform="translate(-1.399 -23.497)"/><path class="h" d="M128.493,68.629a5.52,5.52,0,1,1-5.519,5.52A5.522,5.522,0,0,1,128.493,68.629Z" transform="translate(-1.399 -23.497)"/><path class="d" d="M101.394,84.924a2.235,2.235,0,1,1-2.005-2.443A2.236,2.236,0,0,1,101.394,84.924Z" transform="translate(-1.399 -23.497)"/><path class="d" d="M106.362,84.924a2.235,2.235,0,1,1-2.006-2.443A2.236,2.236,0,0,1,106.362,84.924Z" transform="translate(-1.399 -23.497)"/><path class="d" d="M97.074,87.083a2.235,2.235,0,1,1-2.006-2.444A2.235,2.235,0,0,1,97.074,87.083Z" transform="translate(-1.399 -23.497)"/><path class="d" d="M94.482,91.185a2.235,2.235,0,1,1-2-2.443A2.236,2.236,0,0,1,94.482,91.185Z" transform="translate(-1.399 -23.497)"/><line class="g" x1="184.301" y1="31.661" x2="198.032" y2="31.661"/><line class="g" x1="186.301" y1="35.796" x2="196.032" y2="35.796"/><line class="g" x1="188.301" y1="39.931" x2="194.032" y2="39.931"/><line class="g" x1="190.301" y1="44.065" x2="192.032" y2="44.065"/><polyline class="a" points="164.834 109.402 127.055 109.345 127.055 71.078 114.941 71.078"/><path class="a" d="M174.609,107.7" transform="translate(-1.399 -23.497)"/><polyline class="a" points="164.835 106.58 164.835 99.621 152.082 99.621 148.066 95.603 144.05 99.621"/><path class="e" d="M169.059,132.9a2.825,2.825,0,1,0-2.825,2.825A2.827,2.827,0,0,0,169.059,132.9Z" transform="translate(-1.399 -23.497)"/><line class="g" x1="173.035" y1="87.164" x2="173.035" y2="92.204"/><path class="e" d="M171.605,107.826A2.827,2.827,0,1,0,174.434,105,2.825,2.825,0,0,0,171.605,107.826Z" transform="translate(-1.399 -23.497)"/><rect class="c" x="169.249" y="91.226" width="5.641" height="10.313"/><path class="d" d="M184.967,118.278a2.525,2.525,0,0,1-2.5,2.839,2.47,2.47,0,0,1-2.422-2.735,2.559,2.559,0,0,1,2.5-2.83A2.453,2.453,0,0,1,184.967,118.278Zm-4.182.088c0,1.152.624,2.183,1.719,2.183s1.727-1.015,1.727-2.238c0-1.072-.559-2.191-1.719-2.191S180.785,117.183,180.785,118.366Z" transform="translate(-1.399 -23.497)"/><path class="d" d="M189.111,119.974c0,.4.008.751.033,1.055h-.624l-.041-.632h-.015a1.456,1.456,0,0,1-1.279.72c-.608,0-1.335-.336-1.335-1.7v-2.263h.7V119.3c0,.735.223,1.231.863,1.231a1.017,1.017,0,0,0,.928-.639,1.03,1.03,0,0,0,.064-.36v-2.375h.7Z" transform="translate(-1.399 -23.497)"/><path class="d" d="M191.129,116.047v1.112h1.008v.536h-1.008v2.086c0,.48.136.752.527.752a1.554,1.554,0,0,0,.408-.048l.033.528a1.731,1.731,0,0,1-.624.1.976.976,0,0,1-.76-.3,1.433,1.433,0,0,1-.272-1.007V117.7h-.6v-.536h.6v-.928Z" transform="translate(-1.399 -23.497)"/><path class="d" d="M192.93,118.422c0-.495-.017-.895-.033-1.263h.632l.032.664h.016a1.519,1.519,0,0,1,1.375-.752,1.752,1.752,0,0,1,1.639,1.967,1.832,1.832,0,0,1-1.759,2.079,1.356,1.356,0,0,1-1.191-.608h-.016v2.1h-.695Zm.695,1.032a1.6,1.6,0,0,0,.032.288,1.086,1.086,0,0,0,1.055.823c.744,0,1.176-.607,1.176-1.5,0-.776-.409-1.439-1.152-1.439a1.123,1.123,0,0,0-1.063.871,1.1,1.1,0,0,0-.048.288Z" transform="translate(-1.399 -23.497)"/><path class="d" d="M200.72,119.974c0,.4.008.751.031,1.055h-.623l-.04-.632h-.017a1.454,1.454,0,0,1-1.279.72c-.607,0-1.335-.336-1.335-1.7v-2.263h.7V119.3c0,.735.224,1.231.863,1.231a1.018,1.018,0,0,0,.928-.639,1.03,1.03,0,0,0,.064-.36v-2.375h.7Z" transform="translate(-1.399 -23.497)"/><path class="d" d="M202.736,116.047v1.112h1.008v.536h-1.008v2.086c0,.48.136.752.529.752a1.563,1.563,0,0,0,.407-.048l.032.528a1.719,1.719,0,0,1-.624.1.977.977,0,0,1-.76-.3,1.438,1.438,0,0,1-.271-1.007V117.7h-.6v-.536h.6v-.928Z" transform="translate(-1.399 -23.497)"/><path class="d" d="M184.926,130.148a1.141,1.141,0,0,0,.767-.295c.192-.224.264-.529.264-1.456v-3.238h.7v3.51a2.121,2.121,0,0,1-.464,1.591,1.786,1.786,0,0,1-1.2.44Zm1.815-6.077a.413.413,0,0,1-.44.432.42.42,0,0,1-.432-.432.431.431,0,0,1,.448-.439A.416.416,0,0,1,186.741,124.071Z" transform="translate(-1.399 -23.497)"/><path class="d" d="M189.956,129.029l-.056-.488h-.024a1.442,1.442,0,0,1-1.184.576,1.1,1.1,0,0,1-1.182-1.111c0-.936.831-1.447,2.326-1.44v-.08a.8.8,0,0,0-.879-.9,1.938,1.938,0,0,0-1.008.287l-.16-.463a2.4,2.4,0,0,1,1.272-.344c1.183,0,1.47.807,1.47,1.583V128.1a5.433,5.433,0,0,0,.065.927Zm-.1-1.975c-.768-.016-1.64.12-1.64.872a.623.623,0,0,0,.664.671.962.962,0,0,0,.935-.648.73.73,0,0,0,.041-.223Z" transform="translate(-1.399 -23.497)"/><path class="d" d="M194.428,128.885a2.612,2.612,0,0,1-1.112.223,1.837,1.837,0,0,1-1.926-1.974,1.966,1.966,0,0,1,2.078-2.055,2.344,2.344,0,0,1,.975.2l-.159.544a1.633,1.633,0,0,0-.816-.184,1.459,1.459,0,0,0-.024,2.91,2,2,0,0,0,.864-.192Z" transform="translate(-1.399 -23.497)"/><path class="d" d="M195.949,126.934h.016c.1-.136.231-.3.344-.44l1.135-1.335h.847l-1.5,1.591,1.7,2.279h-.855l-1.335-1.855-.36.4v1.456h-.7v-5.677h.7Z" transform="translate(-1.399 -23.497)"/></svg>