<?xml version="1.0" encoding="utf-8"?>
<!-- Generator: Adobe Illustrator 26.5.0, SVG Export Plug-In . SVG Version: 6.00 Build 0)  -->
<svg version="1.1" id="Layer_2" xmlns="http://www.w3.org/2000/svg" xmlns:xlink="http://www.w3.org/1999/xlink" x="0px" y="0px"
	 viewBox="0 0 324.7 116.2" style="enable-background:new 0 0 324.7 116.2;" xml:space="preserve">
<style type="text/css">
	.st0{fill:#C7DBEE;stroke:#526A7A;stroke-miterlimit:10;}
	.st1{fill:#C7DBEE;stroke:#526A7A;stroke-linejoin:round;stroke-miterlimit:10;}
	.st2{fill:#526A7A;stroke:#526A7A;stroke-linejoin:round;stroke-miterlimit:10;}
	.st3{fill:#526A7A;}
	.st4{fill:none;stroke:#000000;stroke-width:1.5;stroke-linecap:round;stroke-linejoin:round;}
	.st5{fill:#232020;}
	.st6{fill:none;stroke:#000000;stroke-width:1.5;stroke-linecap:round;stroke-linejoin:round;stroke-miterlimit:10;}
	.st7{fill:none;stroke:#000000;stroke-width:3;stroke-linecap:round;stroke-linejoin:round;}
	.st8{fill:none;stroke:#FFFFFF;stroke-width:1.6;stroke-linecap:round;stroke-linejoin:round;}
	.st9{fill:#FFFFFF;}
	.st10{fill:#C7DBEE;}
	.st11{fill:none;stroke:#000000;stroke-width:1.5;stroke-linejoin:round;}
	.st12{fill:#EA5B28;}
</style>
<g>
	<g>
		<g>
			<g>
				<path class="st0" d="M245.6,92.8c0-1-0.8-1.7-1.7-1.7h-11l-4.6-4.6c-0.7-0.7-1.8-0.7-2.4,0l-4,4c-0.7,0.7-0.7,1.8,0,2.4
					c0.7,0.7,1.8,0.7,2.4,0l2.8-2.8L231,94c0.3,0.3,0.8,0.5,1.2,0.5l0,0h10v6.8c0,0.9,0.8,1.7,1.7,1.7s1.7-0.8,1.7-1.7L245.6,92.8z"
					/>
				<g>
					<g>
						<path class="st1" d="M245.6,95h12.1V81.8h-12.1v-7.7c0-0.9-0.8-1.7-1.7-1.7s-1.7,0.8-1.7,1.7v9.4c0,0.9,0.8,1.7,1.7,1.7h1.7
							V95z"/>
					</g>
				</g>
				<rect x="245.6" y="77.3" class="st2" width="3.9" height="22.2"/>
			</g>
			<g>
				<g>
					<g>
						<path class="st0" d="M153.8,53.1H172c1.2,0,2.2,1,2.2,2.2c0,1.2-1,2.2-2.2,2.2h-18.3V53.1z"/>
						<path class="st0" d="M153.8,44H172c1.2,0,2.2,1,2.2,2.2c0,1.2-1,2.2-2.2,2.2h-18.3V44z"/>
						<path class="st0" d="M153.8,62.1H172c1.2,0,2.2,1,2.2,2.2c0,1.2-1,2.2-2.2,2.2h-18.3V62.1z"/>
					</g>
					<g>
						<path class="st0" d="M153.2,68.7c7.4,0,13.4-6,13.4-13.4s-6-13.4-13.4-13.4c-7.4,0-13.4,6-13.4,13.4S145.8,68.7,153.2,68.7z"
							/>
					</g>
				</g>
				<g>
					<path class="st3" d="M147,58.7l-1.8-5.7h1.7l0.6,2.3c0.2,0.6,0.3,1.3,0.5,2h0c0.1-0.7,0.3-1.4,0.5-2l0.6-2.3h1.6l-1.9,5.7H147z
						"/>
					<path class="st3" d="M156.6,55.7c0,1.8-1.1,3-2.9,3c-1.8,0-2.8-1.3-2.8-2.9c0-1.7,1.1-3,2.8-3
						C155.7,52.8,156.6,54.2,156.6,55.7z M152.6,55.8c0,1.1,0.5,1.7,1.2,1.7s1.2-0.7,1.2-1.8c0-1-0.4-1.7-1.2-1.7
						C153.1,54.1,152.6,54.7,152.6,55.8z"/>
					<path class="st3" d="M157.4,52.9h1.5v4.4h2.2v1.3h-3.7V52.9z"/>
				</g>
				<g>
					<path class="st3" d="M145.2,63.7l0.2-0.3l0.7-0.1c1.6-0.2,2.4-0.4,2.8-1c0.3-0.4,0.3-0.9-0.2-1.2c-0.3-0.2-0.7-0.3-1-0.2
						l0.1-0.5c0.4,0,0.9,0.1,1.3,0.4c0.8,0.6,0.8,1.3,0.4,1.9c-0.5,0.7-1.4,0.9-2.7,1.1l-0.5,0.1l0,0l1.7,1.2l-0.3,0.4L145.2,63.7z"
						/>
					<path class="st3" d="M152.7,62.8l-1.7-0.4l-0.4,1.1c0.1,0,0.2,0,0.4,0.1c0.3,0.1,0.7,0.2,0.9,0.5c0.3,0.3,0.5,0.7,0.4,1.3
						c-0.2,0.9-1,1.4-2,1.1c-0.5-0.1-0.9-0.3-1-0.5l0.3-0.4c0.2,0.2,0.5,0.4,0.9,0.5c0.6,0.1,1.1-0.1,1.3-0.7c0.1-0.6-0.2-1.1-1-1.3
						c-0.3-0.1-0.5-0.1-0.6-0.1l0.8-2.1l2.1,0.5L152.7,62.8z"/>
					<path class="st3" d="M156.4,64.1c0.2,1.5-0.2,2.5-1.2,2.6c-0.9,0.1-1.6-0.6-1.8-2.1c-0.2-1.5,0.3-2.4,1.2-2.6
						C155.5,61.9,156.1,62.6,156.4,64.1z M153.9,64.5c0.2,1.2,0.6,1.8,1.2,1.7c0.6-0.1,0.8-0.9,0.6-2c-0.2-1.1-0.6-1.8-1.2-1.7
						C154,62.6,153.7,63.3,153.9,64.5z"/>
					<path class="st3" d="M156.8,62.5l0.5-0.3l0.9,1.5l0,0c0-0.2,0.1-0.4,0.1-0.5l0.4-1.9l0.6-0.4l-0.5,2.2l2.6,0.8l-0.6,0.4
						l-2.2-0.7l-0.1,0.6l0.7,1.2l-0.5,0.3L156.8,62.5z"/>
				</g>
			</g>
			<g>
				<g>
					<g>
						<g>
							<g>
								<path class="st0" d="M228.7,53.1h-18.3c-1.2,0-2.2,1-2.2,2.2c0,1.2,1,2.2,2.2,2.2h18.3V53.1z"/>
								<path class="st0" d="M228.7,44h-18.3c-1.2,0-2.2,1-2.2,2.2c0,1.2,1,2.2,2.2,2.2h18.3V44z"/>
								<path class="st0" d="M228.7,62.1h-18.3c-1.2,0-2.2,1-2.2,2.2c0,1.2,1,2.2,2.2,2.2h18.3V62.1z"/>
							</g>
							<g>
								<path class="st0" d="M229.3,68.7c-7.4,0-13.4-6-13.4-13.4s6-13.4,13.4-13.4c7.4,0,13.4,6,13.4,13.4S236.7,68.7,229.3,68.7z"
									/>
							</g>
						</g>
					</g>
				</g>
				<g>
					<path class="st3" d="M220.2,54.2h-1.5v-1.3h4.5v1.3h-1.5v4.4h-1.5V54.2z"/>
					<path class="st3" d="M229.2,55.7c0,1.8-1.1,3-2.9,3c-1.8,0-2.8-1.3-2.8-2.9c0-1.7,1.1-3,2.8-3
						C228.3,52.8,229.2,54.2,229.2,55.7z M225.2,55.8c0,1.1,0.5,1.7,1.2,1.7s1.2-0.7,1.2-1.8c0-1-0.4-1.7-1.2-1.7
						C225.7,54.1,225.2,54.7,225.2,55.8z"/>
					<path class="st3" d="M229.9,58.7v-5.7h1.8l0.9,1.8c0.3,0.6,0.6,1.3,0.9,2h0c-0.1-0.8-0.1-1.6-0.1-2.4v-1.4h1.4v5.7h-1.6l-1-1.9
						c-0.3-0.6-0.7-1.4-1-2.1h0c0,0.8,0.1,1.6,0.1,2.6v1.4H229.9z"/>
					<path class="st3" d="M239.4,56.3h-2.1v1.1h2.3v1.3h-3.8v-5.7h3.7v1.2h-2.2v0.9h2.1V56.3z"/>
				</g>
				<g>
					<path class="st3" d="M221.2,63.7l0.2-0.3l0.7-0.1c1.6-0.2,2.4-0.4,2.8-1c0.3-0.4,0.3-0.9-0.2-1.2c-0.3-0.2-0.7-0.3-1-0.2
						l0.1-0.5c0.4,0,0.9,0.1,1.3,0.4c0.8,0.6,0.8,1.3,0.4,1.9c-0.5,0.7-1.4,0.9-2.7,1.1l-0.5,0.1l0,0l1.7,1.2l-0.3,0.4L221.2,63.7z"
						/>
					<path class="st3" d="M228.8,62.8l-1.7-0.4l-0.4,1.1c0.1,0,0.2,0,0.4,0.1c0.3,0.1,0.7,0.2,0.9,0.5c0.3,0.3,0.5,0.7,0.4,1.3
						c-0.2,0.9-1,1.4-2,1.1c-0.5-0.1-0.9-0.3-1-0.5l0.3-0.4c0.2,0.2,0.5,0.4,0.9,0.5c0.6,0.1,1.1-0.1,1.3-0.7c0.1-0.6-0.2-1.1-1-1.3
						c-0.3-0.1-0.5-0.1-0.6-0.1l0.8-2.1l2.1,0.5L228.8,62.8z"/>
					<path class="st3" d="M232.4,64.1c0.2,1.5-0.2,2.5-1.2,2.6c-0.9,0.1-1.6-0.6-1.8-2.1c-0.2-1.5,0.3-2.4,1.2-2.6
						C231.5,61.9,232.2,62.6,232.4,64.1z M230,64.5c0.2,1.2,0.6,1.8,1.2,1.7c0.6-0.1,0.8-0.9,0.6-2c-0.2-1.1-0.6-1.8-1.2-1.7
						C230.1,62.6,229.8,63.3,230,64.5z"/>
					<path class="st3" d="M232.9,62.5l0.5-0.3l0.9,1.5l0,0c0-0.2,0.1-0.4,0.1-0.5l0.4-1.9l0.6-0.4l-0.5,2.2l2.6,0.8l-0.6,0.4
						l-2.2-0.7l-0.1,0.6l0.7,1.2l-0.5,0.3L232.9,62.5z"/>
				</g>
			</g>
			<g>
				<g>
					<g>
						<path class="st4" d="M157.7,43.3c1.8-9.3,16-6.4,14.2,2.8"/>
						<g>
							<path d="M159.6,43.6c-0.2,1.1-1.2,1.8-2.3,1.6s-1.8-1.2-1.6-2.3c0.2-1.1,1.2-1.8,2.3-1.6C159.1,41.5,159.8,42.6,159.6,43.6z"
								/>
						</g>
						<g>
							<path d="M170,45.7c-0.2,1.1,0.5,2.1,1.6,2.3c1.1,0.2,2.1-0.5,2.3-1.6c0.2-1.1-0.5-2.1-1.6-2.3S170.2,44.6,170,45.7z"/>
						</g>
					</g>
				</g>
			</g>
			<g>
				<path class="st5" d="M265.3,84.7c0,2.5-0.9,3.5-1.9,3.5c-1.1,0-1.9-1.2-1.9-3.5c0-2.2,0.8-3.4,2-3.4
					C264.6,81.3,265.3,82.5,265.3,84.7z M262.3,84.7c0,1.4,0.3,2.8,1.1,2.8c0.9,0,1.1-1.5,1.1-2.8c0-1.3-0.2-2.7-1.1-2.7
					C262.6,82,262.3,83.4,262.3,84.7z"/>
				<path class="st5" d="M269.1,86.8c0,0.5,0,1,0,1.3h-0.7l0-0.5h0c-0.1,0.2-0.5,0.6-1,0.6c-0.8,0-1.2-0.7-1.2-1.9v-3.1h0.8v2.9
					c0,0.8,0.1,1.3,0.6,1.3c0.5,0,0.7-0.4,0.7-0.6c0-0.1,0-0.3,0-0.4v-3.2h0.8V86.8z"/>
				<path class="st5" d="M271.1,82v1.3h0.9v0.6h-0.9v2.9c0,0.6,0.2,0.8,0.5,0.8c0.1,0,0.2,0,0.3,0l0,0.6c-0.1,0-0.3,0.1-0.6,0.1
					c-0.3,0-0.6-0.1-0.8-0.3c-0.2-0.2-0.3-0.5-0.3-1.2v-2.8h-0.6v-0.6h0.6v-1.1L271.1,82z"/>
				<path class="st5" d="M272.7,84.8c0-0.7,0-1.2,0-1.5h0.7l0,0.6h0c0.3-0.5,0.6-0.7,1-0.7c0.8,0,1.4,0.9,1.4,2.5
					c0,1.8-0.7,2.5-1.5,2.5c-0.5,0-0.7-0.3-0.8-0.6h0V90h-0.8V84.8z M273.5,86.3c0,0.1,0,0.3,0,0.4c0.2,0.7,0.5,0.8,0.7,0.8
					c0.6,0,0.8-0.9,0.8-1.9c0-1-0.2-1.8-0.8-1.8c-0.4,0-0.7,0.4-0.7,0.9c0,0.1,0,0.2,0,0.4V86.3z"/>
				<path class="st5" d="M279.6,86.8c0,0.5,0,1,0,1.3H279l0-0.5h0c-0.1,0.2-0.5,0.6-1,0.6c-0.8,0-1.2-0.7-1.2-1.9v-3.1h0.8v2.9
					c0,0.8,0.1,1.3,0.6,1.3c0.5,0,0.7-0.4,0.7-0.6c0-0.1,0-0.3,0-0.4v-3.2h0.8V86.8z"/>
				<path class="st5" d="M281.6,82v1.3h0.9v0.6h-0.9v2.9c0,0.6,0.2,0.8,0.5,0.8c0.1,0,0.2,0,0.3,0l0,0.6c-0.1,0-0.3,0.1-0.6,0.1
					c-0.3,0-0.6-0.1-0.8-0.3c-0.2-0.2-0.3-0.5-0.3-1.2v-2.8h-0.6v-0.6h0.6v-1.1L281.6,82z"/>
				<path class="st5" d="M260.9,99.5c0.2-0.1,0.5-0.1,0.7-0.4c0.2-0.3,0.2-0.6,0.2-1.5v-4.3h0.8v4.5c0,1-0.1,1.5-0.5,1.8
					c-0.3,0.3-0.8,0.4-1.1,0.5L260.9,99.5z M262.6,92c0,0.3-0.2,0.5-0.5,0.5c-0.2,0-0.5-0.2-0.4-0.5c0-0.3,0.2-0.5,0.5-0.5
					C262.4,91.5,262.6,91.7,262.6,92z"/>
				<path class="st5" d="M265.5,98.1l0-0.5h0c-0.2,0.4-0.5,0.6-1,0.6c-0.6,0-1.1-0.5-1.1-1.4c0-1.2,1-1.7,2.1-1.8v-0.1
					c0-0.6-0.2-1.1-0.8-1.1c-0.3,0-0.6,0.1-0.8,0.2l-0.2-0.5c0.2-0.1,0.6-0.3,1.1-0.3c1,0,1.4,0.6,1.4,1.7V97c0,0.4,0,0.8,0,1.1
					H265.5z M265.4,95.6c-0.4,0-1.3,0.1-1.3,1.1c0,0.6,0.3,0.9,0.6,0.9c0.3,0,0.6-0.2,0.7-0.7c0-0.1,0-0.2,0-0.3V95.6z"/>
				<path class="st5" d="M269.6,98c-0.2,0.1-0.5,0.2-0.8,0.2c-1.1,0-1.8-0.8-1.8-2.4c0-1.4,0.7-2.5,1.9-2.5c0.3,0,0.5,0.1,0.7,0.1
					l-0.1,0.6c-0.1,0-0.3-0.1-0.5-0.1c-0.8,0-1.1,0.9-1.1,1.9c0,1.1,0.4,1.8,1.1,1.8c0.2,0,0.4-0.1,0.6-0.1L269.6,98z"/>
				<path class="st5" d="M271,95.5L271,95.5c0.1-0.2,0.2-0.4,0.3-0.5l1-1.7h0.8l-1.3,2l1.4,2.8h-0.9l-1-2.3l-0.3,0.4v1.8h-0.8v-6.9
					h0.8V95.5z"/>
			</g>
			<g>
				<path class="st5" d="M261.6,42.1c-0.3,0.1-0.8,0.2-1.2,0.2c-0.6,0-1.1-0.2-1.6-0.7c-0.5-0.5-0.8-1.4-0.8-2.7
					c0-2.6,1.3-3.5,2.5-3.5c0.4,0,0.8,0.1,1,0.2l-0.2,0.7c-0.2-0.1-0.4-0.2-0.8-0.2c-0.8,0-1.7,0.7-1.7,2.8c0,2.1,0.8,2.7,1.6,2.7
					c0.3,0,0.4,0,0.5-0.1v-2.2H260v-0.6h1.6V42.1z"/>
				<path class="st5" d="M262.6,38.7c0-0.4,0-0.9,0-1.2h0.7l0,0.8h0c0.2-0.5,0.6-0.8,1-0.8c0.1,0,0.1,0,0.2,0v0.8c0,0-0.1,0-0.2,0
					c-0.5,0-0.8,0.5-0.9,1c0,0.1,0,0.3,0,0.4v2.7h-0.8V38.7z"/>
				<path class="st5" d="M268,39.8c0,1.9-0.9,2.5-1.6,2.5c-0.9,0-1.6-0.8-1.6-2.5c0-1.8,0.8-2.5,1.6-2.5
					C267.3,37.3,268,38.1,268,39.8z M265.6,39.8c0,0.8,0.1,1.9,0.8,1.9c0.7,0,0.8-1.1,0.8-1.9c0-0.7-0.1-1.9-0.8-1.9
					C265.7,38,265.6,39.1,265.6,39.8z"/>
				<path class="st5" d="M271.8,40.9c0,0.5,0,1,0,1.3h-0.7l0-0.5h0c-0.1,0.2-0.5,0.6-1,0.6c-0.8,0-1.2-0.7-1.2-1.9v-3.1h0.8v2.9
					c0,0.8,0.1,1.3,0.6,1.3c0.5,0,0.7-0.4,0.7-0.6c0-0.1,0-0.3,0-0.4v-3.2h0.8V40.9z"/>
				<path class="st5" d="M272.9,38.7c0-0.6,0-0.9,0-1.2h0.7l0,0.6h0c0.2-0.4,0.6-0.7,1.1-0.7c0.7,0,1.2,0.5,1.2,1.7v3.2H275v-3.1
					c0-0.6-0.1-1.1-0.7-1.1c-0.3,0-0.6,0.3-0.7,0.8c0,0.1,0,0.3,0,0.4v3h-0.8V38.7z"/>
				<path class="st5" d="M279.8,35.3v5.8c0,0.3,0,0.9,0,1.2h-0.7l0-0.6h0c-0.2,0.4-0.5,0.7-1,0.7c-0.8,0-1.4-0.9-1.4-2.5
					c0-1.7,0.7-2.5,1.5-2.5c0.3,0,0.7,0.2,0.9,0.6h0v-2.6H279.8z M279,39.2c0-0.1,0-0.2,0-0.3c0-0.5-0.3-0.9-0.7-0.9
					c-0.6,0-0.9,0.9-0.9,1.9c0,1,0.3,1.8,0.8,1.8c0.2,0,0.6-0.1,0.7-0.8c0-0.1,0-0.2,0-0.3V39.2z"/>
				<path class="st5" d="M257,45.1v1.3h0.9V47H257v2.9c0,0.6,0.2,0.8,0.5,0.8c0.1,0,0.2,0,0.3,0l0,0.6c-0.1,0-0.3,0.1-0.6,0.1
					c-0.3,0-0.6-0.1-0.8-0.3c-0.2-0.2-0.3-0.5-0.3-1.2V47h-0.6v-0.6h0.6v-1.1L257,45.1z"/>
				<path class="st5" d="M261.5,48.8c0,1.9-0.9,2.5-1.6,2.5c-0.9,0-1.6-0.8-1.6-2.5c0-1.8,0.8-2.5,1.6-2.5
					C260.8,46.3,261.5,47.1,261.5,48.8z M259.1,48.8c0,0.8,0.1,1.9,0.8,1.9c0.7,0,0.8-1.1,0.8-1.9c0-0.7-0.1-1.9-0.8-1.9
					C259.3,47,259.1,48.1,259.1,48.8z"/>
				<path class="st5" d="M263.9,51.2c0-0.3,0-0.8,0-1.2v-5.8h0.8V47h0c0.2-0.5,0.6-0.6,1-0.6c0.7,0,1.3,0.9,1.3,2.4
					c0,1.7-0.7,2.5-1.5,2.5c-0.5,0-0.8-0.3-1-0.7h0l0,0.6H263.9z M264.7,49.5c0,0.1,0,0.2,0,0.3c0.2,0.7,0.5,0.8,0.7,0.8
					c0.6,0,0.8-0.8,0.8-1.9c0-1-0.2-1.8-0.8-1.8c-0.4,0-0.7,0.4-0.7,0.9c0,0.1,0,0.2,0,0.3V49.5z"/>
				<path class="st5" d="M267.9,47.7c0-0.4,0-0.9,0-1.2h0.7l0,0.8h0c0.2-0.5,0.6-0.8,1-0.8c0.1,0,0.1,0,0.2,0v0.8c0,0-0.1,0-0.2,0
					c-0.5,0-0.8,0.5-0.9,1c0,0.1,0,0.3,0,0.4v2.7h-0.8V47.7z"/>
				<path class="st5" d="M271.3,45.2c0,0.3-0.2,0.5-0.5,0.5c-0.2,0-0.4-0.2-0.4-0.5c0-0.3,0.2-0.5,0.4-0.5
					C271.1,44.7,271.3,44.9,271.3,45.2z M270.4,51.2v-4.8h0.8v4.8H270.4z"/>
				<path class="st5" d="M275.2,44.3v5.8c0,0.3,0,0.9,0,1.2h-0.7l0-0.6h0c-0.2,0.4-0.5,0.7-1,0.7c-0.8,0-1.4-0.9-1.4-2.5
					c0-1.7,0.7-2.5,1.5-2.5c0.3,0,0.7,0.2,0.9,0.6h0v-2.6H275.2z M274.4,48.2c0-0.1,0-0.2,0-0.3c0-0.5-0.3-0.9-0.7-0.9
					c-0.6,0-0.9,0.9-0.9,1.9c0,1,0.3,1.8,0.8,1.8c0.2,0,0.6-0.1,0.7-0.8c0-0.1,0-0.2,0-0.3V48.2z"/>
				<path class="st5" d="M279.2,46.4c0,0.3,0,0.8,0,1.5v2.7c0,1.3-0.2,1.7-0.5,2.1c-0.3,0.3-0.8,0.5-1.3,0.5c-0.4,0-0.8-0.1-1.1-0.2
					l0.2-0.6c0.2,0.1,0.5,0.2,0.9,0.2c0.6,0,1-0.4,1-1.5v-0.5h0c-0.2,0.4-0.5,0.6-0.9,0.6c-0.9,0-1.4-1-1.4-2.4
					c0-1.8,0.8-2.5,1.5-2.5c0.5,0,0.8,0.3,0.9,0.6h0l0-0.5H279.2z M278.4,48.1c0-0.1,0-0.2,0-0.3c-0.1-0.3-0.3-0.7-0.7-0.7
					c-0.6,0-0.9,0.7-0.9,1.8c0,1.2,0.4,1.8,0.9,1.8c0.2,0,0.5-0.1,0.7-0.7c0-0.1,0-0.3,0-0.4V48.1z"/>
				<path class="st5" d="M280.8,48.9c0,1.5,0.6,1.8,1.1,1.8c0.3,0,0.6-0.1,0.8-0.2l0.1,0.6c-0.3,0.1-0.7,0.2-1.1,0.2
					c-1.2,0-1.8-0.9-1.8-2.4c0-1.6,0.7-2.5,1.6-2.5c1,0,1.4,1,1.4,2.1c0,0.2,0,0.3,0,0.4H280.8z M282.3,48.3c0-1-0.3-1.4-0.7-1.4
					c-0.5,0-0.8,0.7-0.8,1.4H282.3z"/>
			</g>
			<g>
				<path d="M57.9,25l-1.5-6.7h0.8l0.7,3.2c0.2,0.8,0.4,1.7,0.5,2.6h0c0.1-0.9,0.3-1.8,0.5-2.6l0.6-3.1h0.8L58.7,25H57.9z"/>
				<path d="M61.7,18.9c0,0.3-0.2,0.5-0.5,0.5c-0.2,0-0.4-0.2-0.4-0.5c0-0.3,0.2-0.5,0.4-0.5C61.6,18.4,61.7,18.6,61.7,18.9z
					 M60.9,25v-4.8h0.8V25H60.9z"/>
				<path d="M63.3,22.6c0,1.5,0.6,1.8,1.1,1.8c0.3,0,0.6-0.1,0.8-0.2l0.1,0.6C65.1,25,64.7,25,64.3,25c-1.2,0-1.8-0.9-1.8-2.4
					c0-1.6,0.7-2.5,1.6-2.5c1,0,1.4,1,1.4,2.1c0,0.2,0,0.3,0,0.4H63.3z M64.8,22.1c0-1-0.3-1.4-0.7-1.4c-0.5,0-0.8,0.7-0.8,1.4H64.8
					z"/>
				<path d="M66.8,20.1l0.5,2.4c0.1,0.5,0.2,1,0.3,1.5h0c0.1-0.5,0.2-1.1,0.3-1.5l0.6-2.4H69l0.5,2.3c0.1,0.5,0.2,1,0.3,1.6h0
					c0.1-0.5,0.2-1,0.3-1.6l0.5-2.3h0.8L70.1,25h-0.6L69,22.6c-0.1-0.5-0.2-0.9-0.3-1.4h0c-0.1,0.6-0.2,1-0.3,1.5L67.8,25h-0.6
					L66,20.1H66.8z"/>
				<path d="M72.6,22.6c0,1.5,0.6,1.8,1.1,1.8c0.3,0,0.6-0.1,0.8-0.2l0.1,0.6C74.4,25,74,25,73.6,25c-1.2,0-1.8-0.9-1.8-2.4
					c0-1.6,0.7-2.5,1.6-2.5c1,0,1.4,1,1.4,2.1c0,0.2,0,0.3,0,0.4H72.6z M74.1,22.1c0-1-0.3-1.4-0.7-1.4c-0.5,0-0.8,0.7-0.8,1.4H74.1
					z"/>
				<path d="M78.6,18.1v5.8c0,0.3,0,0.9,0,1.2H78l0-0.6h0c-0.2,0.4-0.5,0.7-1,0.7c-0.8,0-1.4-0.9-1.4-2.5c0-1.7,0.7-2.5,1.5-2.5
					c0.3,0,0.7,0.2,0.9,0.6h0v-2.6H78.6z M77.8,22c0-0.1,0-0.2,0-0.3c0-0.5-0.3-0.9-0.7-0.9c-0.6,0-0.9,0.9-0.9,1.9
					c0,1,0.3,1.8,0.8,1.8c0.2,0,0.6-0.1,0.7-0.8c0-0.1,0-0.2,0-0.3V22z"/>
				<path d="M81.4,25v-4.2h-0.6v-0.6h0.6v-0.3c0-0.5,0.1-1.1,0.4-1.5c0.3-0.3,0.7-0.4,1-0.4c0.3,0,0.5,0,0.6,0.1l-0.1,0.6
					c-0.1,0-0.2-0.1-0.4-0.1c-0.5,0-0.7,0.6-0.7,1.2v0.3H83v0.6h-0.9V25H81.4z"/>
				<path d="M83.5,21.4c0-0.4,0-0.9,0-1.2h0.7l0,0.8h0c0.2-0.5,0.6-0.8,1-0.8c0.1,0,0.1,0,0.2,0v0.8c0,0-0.1,0-0.2,0
					c-0.5,0-0.8,0.5-0.9,1c0,0.1,0,0.3,0,0.4V25h-0.8V21.4z"/>
				<path d="M89,22.6c0,1.9-0.9,2.5-1.6,2.5c-0.9,0-1.6-0.8-1.6-2.5c0-1.8,0.8-2.5,1.6-2.5C88.3,20.1,89,20.9,89,22.6z M86.6,22.6
					c0,0.8,0.1,1.9,0.8,1.9c0.7,0,0.8-1.1,0.8-1.9c0-0.7-0.1-1.9-0.8-1.9C86.7,20.7,86.6,21.8,86.6,22.6z"/>
				<path d="M89.8,21.4c0-0.6,0-0.9,0-1.2h0.7l0,0.6h0c0.2-0.4,0.6-0.7,1.1-0.7c0.5,0,0.8,0.2,1,0.7h0c0.1-0.2,0.3-0.4,0.5-0.5
					c0.2-0.1,0.4-0.2,0.7-0.2c0.7,0,1.2,0.5,1.2,1.7V25h-0.8v-3c0-0.6-0.1-1.2-0.7-1.2c-0.3,0-0.6,0.3-0.7,0.7c0,0.1,0,0.3,0,0.4V25
					H92v-3.2c0-0.5-0.1-1.1-0.7-1.1c-0.3,0-0.6,0.3-0.7,0.8c0,0.1,0,0.3,0,0.4V25h-0.8V21.4z"/>
				<path d="M98.5,18.9v1.3h0.9v0.6h-0.9v2.9c0,0.6,0.2,0.8,0.5,0.8c0.1,0,0.2,0,0.3,0l0,0.6c-0.1,0-0.3,0.1-0.6,0.1
					c-0.3,0-0.6-0.1-0.8-0.3c-0.2-0.2-0.3-0.5-0.3-1.2v-2.8h-0.6v-0.6h0.6v-1.1L98.5,18.9z"/>
				<path d="M100.1,18.1h0.8v2.6h0c0.1-0.2,0.2-0.3,0.4-0.4c0.2-0.1,0.4-0.2,0.6-0.2c0.6,0,1.1,0.5,1.1,1.7V25h-0.8v-3.1
					c0-0.6-0.1-1.1-0.6-1.1c-0.4,0-0.6,0.3-0.8,0.8c0,0.1,0,0.2,0,0.4V25h-0.8V18.1z"/>
				<path d="M104.7,22.6c0,1.5,0.6,1.8,1.1,1.8c0.3,0,0.6-0.1,0.8-0.2l0.1,0.6c-0.3,0.1-0.7,0.2-1.1,0.2c-1.2,0-1.8-0.9-1.8-2.4
					c0-1.6,0.7-2.5,1.6-2.5c1,0,1.4,1,1.4,2.1c0,0.2,0,0.3,0,0.4H104.7z M106.3,22.1c0-1-0.3-1.4-0.7-1.4c-0.5,0-0.8,0.7-0.8,1.4
					H106.3z"/>
				<path d="M109.3,25c0-0.3,0-0.8,0-1.2v-5.8h0.8v2.6h0c0.2-0.5,0.6-0.6,1-0.6c0.7,0,1.3,0.9,1.3,2.4c0,1.7-0.7,2.5-1.5,2.5
					c-0.5,0-0.8-0.3-1-0.7h0l0,0.6H109.3z M110.2,23.3c0,0.1,0,0.2,0,0.3c0.2,0.7,0.5,0.8,0.7,0.8c0.6,0,0.8-0.8,0.8-1.9
					c0-1-0.2-1.8-0.8-1.8c-0.4,0-0.7,0.4-0.7,0.9c0,0.1,0,0.2,0,0.3V23.3z"/>
				<path d="M115.3,25l0-0.5h0c-0.2,0.4-0.5,0.6-1,0.6c-0.6,0-1.1-0.5-1.1-1.4c0-1.2,1-1.7,2.1-1.8v-0.1c0-0.6-0.2-1.1-0.8-1.1
					c-0.3,0-0.6,0.1-0.8,0.2l-0.2-0.5c0.2-0.1,0.6-0.3,1.1-0.3c1,0,1.4,0.6,1.4,1.7v2.1c0,0.4,0,0.8,0,1.1H115.3z M115.2,22.5
					c-0.4,0-1.3,0.1-1.3,1.1c0,0.6,0.3,0.9,0.6,0.9c0.3,0,0.6-0.2,0.7-0.7c0-0.1,0-0.2,0-0.3V22.5z"/>
				<path d="M119.4,24.9c-0.2,0.1-0.5,0.2-0.8,0.2c-1.1,0-1.8-0.8-1.8-2.4c0-1.4,0.7-2.5,1.9-2.5c0.3,0,0.5,0.1,0.7,0.1l-0.1,0.6
					c-0.1,0-0.3-0.1-0.5-0.1c-0.8,0-1.1,0.9-1.1,1.9c0,1.1,0.4,1.8,1.1,1.8c0.2,0,0.4-0.1,0.6-0.1L119.4,24.9z"/>
				<path d="M120.8,22.4L120.8,22.4c0.1-0.2,0.2-0.4,0.3-0.5l1-1.7h0.8l-1.3,2L123,25h-0.9l-1-2.3l-0.3,0.4V25H120v-6.9h0.8V22.4z"
					/>
				<path d="M123.5,24.5c0-0.3,0.2-0.6,0.5-0.6c0.3,0,0.5,0.2,0.5,0.6c0,0.3-0.2,0.6-0.5,0.6C123.8,25.1,123.5,24.8,123.5,24.5z"/>
			</g>
			<g>
				<g>
					<g>
						<polyline class="st4" points="269.9,27.8 269.9,12.4 153.5,12.4 153.5,41.9 						"/>
						<g>
							<path d="M151.5,41.9c0,1.1,0.9,2,2,2c1.1,0,2-0.9,2-2c0-1.1-0.9-2-2-2C152.4,39.9,151.5,40.8,151.5,41.9z"/>
						</g>
					</g>
				</g>
				<g>
					<line class="st6" x1="273.9" y1="27.8" x2="265.9" y2="27.8"/>
					<line class="st6" x1="272.4" y1="30.5" x2="267.4" y2="30.5"/>
					<line class="st6" x1="270.5" y1="33.2" x2="269.3" y2="33.2"/>
				</g>
			</g>
		</g>
	</g>
	<g>
		<g>
			<g>
				<polyline class="st7" points="45.4,36.7 86.4,36.7 86.4,53 139.8,53 				"/>
				<g>
					<path d="M139.8,55.1c1.2,0,2.1-1,2.1-2.1s-1-2.1-2.1-2.1c-1.2,0-2.1,1-2.1,2.1S138.6,55.1,139.8,55.1z"/>
				</g>
			</g>
		</g>
		<g>
			<g>
				<polyline class="st7" points="63.4,57.6 63.4,43.5 79.6,43.5 79.6,81 162.2,81 172,64.5 				"/>
				<g>
					<path d="M173.8,65.6c0.6-1,0.3-2.3-0.8-2.9c-1-0.6-2.3-0.3-2.9,0.8c-0.6,1-0.3,2.3,0.8,2.9S173.2,66.7,173.8,65.6z"/>
				</g>
			</g>
			<g>
				<polyline class="st8" points="63.4,57.6 63.4,43.5 79.6,43.5 79.6,81 162.2,81 172,64.5 				"/>
				<g>
					<path class="st9" d="M173.3,65.3c0.4-0.7,0.2-1.6-0.5-2.1c-0.7-0.4-1.6-0.2-2.1,0.5c-0.4,0.7-0.2,1.6,0.5,2.1
						S172.9,66,173.3,65.3z"/>
				</g>
			</g>
		</g>
		<g>
			<g>
				<polyline class="st7" points="56.9,61.1 56.9,43.5 47.2,43.5 				"/>
				<g>
					<path d="M59,61.1c0,1.2-1,2.1-2.1,2.1c-1.2,0-2.1-1-2.1-2.1c0-1.2,1-2.1,2.1-2.1C58,59,59,60,59,61.1z"/>
				</g>
			</g>
			<g>
				<polyline class="st8" points="56.9,61.1 56.9,43.5 47.2,43.5 				"/>
				<g>
					<path class="st9" d="M58.4,61.1c0,0.8-0.7,1.5-1.5,1.5c-0.8,0-1.5-0.7-1.5-1.5c0-0.8,0.7-1.5,1.5-1.5
						C57.7,59.6,58.4,60.3,58.4,61.1z"/>
				</g>
			</g>
		</g>
	</g>
	<g>
		<g>
			<path class="st3" d="M73.3,52.9v43.4c0,1.4-1.1,2.5-2.5,2.5H51c-1.4,0-2.5-1.1-2.5-2.5V52.9c0-1.4,1.1-2.5,2.5-2.5h19.8
				C72.2,50.4,73.3,51.5,73.3,52.9z"/>
		</g>
		<path class="st10" d="M70.8,97.2c0.5,0,0.9-0.4,0.9-0.9V52.9c0-0.5-0.4-0.9-0.9-0.9H51c-0.5,0-0.9,0.4-0.9,0.9v43.4
			c0,0.5,0.4,0.9,0.9,0.9H70.8z M58.5,62.4c0-1.3,1.1-2.4,2.4-2.4s2.4,1.1,2.4,2.4s-1.1,2.4-2.4,2.4S58.5,63.7,58.5,62.4z
			 M58.5,70.4c0-1.3,1.1-2.4,2.4-2.4s2.4,1.1,2.4,2.4s-1.1,2.4-2.4,2.4S58.5,71.7,58.5,70.4z M58.5,78.4c0-1.3,1.1-2.4,2.4-2.4
			s2.4,1.1,2.4,2.4c0,1.3-1.1,2.4-2.4,2.4S58.5,79.7,58.5,78.4z M58.5,86.3c0-1.3,1.1-2.4,2.4-2.4s2.4,1.1,2.4,2.4
			c0,1.3-1.1,2.4-2.4,2.4S58.5,87.6,58.5,86.3z"/>
	</g>
	<g>
		<g>
			<path class="st3" d="M48.5,23v43.4c0,1.4-1.1,2.5-2.5,2.5H26.1c-1.4,0-2.5-1.1-2.5-2.5V23c0-1.4,1.1-2.5,2.5-2.5h19.8
				C47.3,20.4,48.5,21.6,48.5,23z"/>
		</g>
		<path class="st10" d="M45.9,67.3c0.5,0,0.9-0.4,0.9-0.9V23c0-0.5-0.4-0.9-0.9-0.9H26.1c-0.5,0-0.9,0.4-0.9,0.9v43.4
			c0,0.5,0.4,0.9,0.9,0.9H45.9z M33.7,32.5c0-1.3,1.1-2.4,2.4-2.4c1.3,0,2.4,1.1,2.4,2.4c0,1.3-1.1,2.4-2.4,2.4
			C34.7,34.8,33.7,33.8,33.7,32.5z M33.7,40.4c0-1.3,1.1-2.4,2.4-2.4c1.3,0,2.4,1.1,2.4,2.4s-1.1,2.4-2.4,2.4
			C34.7,42.8,33.7,41.7,33.7,40.4z M33.7,48.4c0-1.3,1.1-2.4,2.4-2.4c1.3,0,2.4,1.1,2.4,2.4c0,1.3-1.1,2.4-2.4,2.4
			C34.7,50.8,33.7,49.7,33.7,48.4z M33.7,56.4c0-1.3,1.1-2.4,2.4-2.4c1.3,0,2.4,1.1,2.4,2.4s-1.1,2.4-2.4,2.4
			C34.7,58.7,33.7,57.7,33.7,56.4z"/>
	</g>
	<g>
		<g>
			<g>
				<path class="st11" d="M189.1,34c0,9.6-5.1,12-17.1,12"/>
				<g>
					<path d="M171.9,44.1c-1.1,0-2,0.9-2,2c0,1.1,0.9,2,2,2c1.1,0,2-0.9,2-2C173.9,45,173,44.1,171.9,44.1z"/>
				</g>
			</g>
		</g>
		<g>
			<g>
				<path class="st11" d="M194.3,34c0,7.7,4.1,21.1,16.3,21.1"/>
				<g>
					<path d="M210.5,57.1c1.1,0,2-0.9,2-2c0-1.1-0.9-2-2-2c-1.1,0-2,0.9-2,2C208.6,56.2,209.5,57.1,210.5,57.1z"/>
				</g>
			</g>
		</g>
	</g>
	<path class="st12" d="M192.1,21.7c4,0,7.3,3.3,7.3,7.3c0,4-3.3,7.3-7.3,7.3c-4,0-7.3-3.3-7.3-7.3C184.8,24.9,188.1,21.7,192.1,21.7
		"/>
	<g>
		<path class="st5" d="M201.7,27.4c0-0.3,0.2-0.6,0.5-0.6c0.3,0,0.5,0.2,0.5,0.6c0,0.3-0.2,0.6-0.5,0.6
			C202,28,201.7,27.7,201.7,27.4z"/>
		<path class="st5" d="M206.8,24.6c0,2.4-0.8,3.3-1.7,3.3c-1,0-1.6-1.2-1.6-3.3c0-2.2,0.7-3.3,1.7-3.3
			C206.2,21.3,206.8,22.6,206.8,24.6z M204.2,24.6c0,1.6,0.3,2.7,0.9,2.7c0.6,0,0.9-1.1,0.9-2.7c0-1.5-0.2-2.7-0.9-2.7
			C204.5,22,204.2,23.1,204.2,24.6z"/>
		<path class="st5" d="M210.4,22.1h-1.7l-0.3,1.7c0.1,0,0.1,0,0.2,0c0.4,0,0.9,0.1,1.2,0.5c0.3,0.3,0.5,0.8,0.5,1.5
			c0,1.3-0.8,2.2-2,2.2c-0.4,0-0.8-0.1-1.1-0.3l0.2-0.6c0.2,0.1,0.5,0.3,0.9,0.3c0.7,0,1.2-0.5,1.2-1.5c0-1-0.6-1.5-1.5-1.5
			c-0.2,0-0.4,0-0.5,0l0.4-3h2.3V22.1z"/>
		<path class="st5" d="M214.5,24.6c0,2.4-0.8,3.3-1.7,3.3c-1,0-1.6-1.2-1.6-3.3c0-2.2,0.7-3.3,1.7-3.3
			C213.9,21.3,214.5,22.6,214.5,24.6z M211.9,24.6c0,1.6,0.3,2.7,0.9,2.7c0.6,0,0.9-1.1,0.9-2.7c0-1.5-0.2-2.7-0.9-2.7
			C212.2,22,211.9,23.1,211.9,24.6z"/>
		<path class="st5" d="M220.2,25v0.6h-4.4V25H220.2z"/>
		<path class="st5" d="M221.4,27.4c0-0.3,0.2-0.6,0.5-0.6c0.3,0,0.5,0.2,0.5,0.6c0,0.3-0.2,0.6-0.5,0.6
			C221.6,28,221.4,27.7,221.4,27.4z"/>
		<path class="st5" d="M224.4,22.2L224.4,22.2l-1.1,0.6l-0.1-0.6l1.4-0.8h0.6v6.5h-0.8V22.2z"/>
		<path class="st5" d="M229.9,24.6c0,2.4-0.8,3.3-1.7,3.3c-1,0-1.6-1.2-1.6-3.3c0-2.2,0.7-3.3,1.7-3.3
			C229.4,21.3,229.9,22.6,229.9,24.6z M227.4,24.6c0,1.6,0.3,2.7,0.9,2.7c0.6,0,0.9-1.1,0.9-2.7c0-1.5-0.2-2.7-0.9-2.7
			C227.6,22,227.4,23.1,227.4,24.6z"/>
		<path class="st5" d="M233.8,24.6c0,2.4-0.8,3.3-1.7,3.3c-1,0-1.6-1.2-1.6-3.3c0-2.2,0.7-3.3,1.7-3.3
			C233.2,21.3,233.8,22.6,233.8,24.6z M231.2,24.6c0,1.6,0.3,2.7,0.9,2.7c0.6,0,0.9-1.1,0.9-2.7c0-1.5-0.2-2.7-0.9-2.7
			C231.5,22,231.2,23.1,231.2,24.6z"/>
		<path class="st5" d="M236.8,27.4c-0.1,0.2-0.4,0.5-0.8,0.5c-0.3,0-0.5-0.1-0.7-0.4v0.7c0,0.6,0,1.2,0.1,1.5h-0.7
			c-0.1-0.2-0.1-0.7-0.1-1.5V23h0.8v3.2c0,0.6,0.1,1.1,0.6,1.1c0.5,0,0.7-0.4,0.7-0.6c0-0.1,0-0.3,0-0.4V23h0.8v3.8
			c0,0.4,0.1,0.5,0.3,0.5l-0.1,0.5c-0.1,0-0.1,0-0.2,0C237.2,28,236.9,27.8,236.8,27.4L236.8,27.4z"/>
		<path class="st5" d="M238.6,21.1h2.6v0.7h-1.8v2.4h1.7v0.6h-1.7v3.1h-0.8V21.1z"/>
		<path class="st5" d="M205.7,35.8c-0.2,0.1-0.5,0.2-0.8,0.2c-1.1,0-1.8-0.8-1.8-2.4c0-1.4,0.7-2.5,1.9-2.5c0.3,0,0.5,0.1,0.7,0.1
			l-0.1,0.6c-0.1,0-0.3-0.1-0.5-0.1c-0.8,0-1.1,0.9-1.1,1.9c0,1.1,0.4,1.8,1.1,1.8c0.2,0,0.4-0.1,0.6-0.1L205.7,35.8z"/>
		<path class="st5" d="M208.3,35.9l0-0.5h0c-0.2,0.4-0.5,0.6-1,0.6c-0.6,0-1.1-0.5-1.1-1.4c0-1.2,1-1.7,2.1-1.8v-0.1
			c0-0.6-0.2-1.1-0.8-1.1c-0.3,0-0.6,0.1-0.8,0.2l-0.2-0.5c0.2-0.1,0.6-0.3,1.1-0.3c1,0,1.4,0.6,1.4,1.7v2.1c0,0.4,0,0.8,0,1.1
			H208.3z M208.2,33.4c-0.4,0-1.3,0.1-1.3,1.1c0,0.6,0.3,0.9,0.6,0.9c0.3,0,0.6-0.2,0.7-0.7c0-0.1,0-0.2,0-0.3V33.4z"/>
		<path class="st5" d="M210,32.6c0-0.7,0-1.2,0-1.5h0.7l0,0.6h0c0.3-0.5,0.6-0.7,1-0.7c0.8,0,1.4,0.9,1.4,2.5c0,1.8-0.7,2.5-1.5,2.5
			c-0.5,0-0.7-0.3-0.8-0.6h0v2.4H210V32.6z M210.8,34.1c0,0.1,0,0.3,0,0.4c0.2,0.7,0.5,0.8,0.7,0.8c0.6,0,0.8-0.9,0.8-1.9
			c0-1-0.2-1.8-0.8-1.8c-0.4,0-0.7,0.4-0.7,0.9c0,0.1,0,0.2,0,0.4V34.1z"/>
		<path class="st5" d="M214,35.4c0-0.3,0.2-0.6,0.5-0.6c0.3,0,0.5,0.2,0.5,0.6c0,0.3-0.2,0.6-0.5,0.6C214.2,36,214,35.7,214,35.4z"
			/>
	</g>
</g>
<g>
	<g>
		<path class="st4" d="M226.2,69l-4.3,4.3h-50c0-2.4-2-4.4-4.4-4.4c-2.4,0-4.4,2-4.4,4.4h-5.4l-4.3-4.3"/>
		<g>
			<path d="M224.8,67.6c0.8-0.8,2-0.8,2.8,0s0.8,2,0,2.8c-0.8,0.8-2,0.8-2.8,0C224.1,69.7,224.1,68.4,224.8,67.6z"/>
		</g>
		<g>
			<path d="M154.9,67.6c-0.8-0.8-2-0.8-2.8,0c-0.8,0.8-0.8,2,0,2.8c0.8,0.8,2,0.8,2.8,0C155.7,69.7,155.7,68.4,154.9,67.6z"/>
		</g>
	</g>
</g>
<g>
	<g>
		<path class="st4" d="M142.8,64h-10.6v12.7c-2.4,0-4.4,2-4.4,4.4c0,2.4,2,4.4,4.4,4.4v7.1l75.8,0.1l11.3-13l12.7,0.1l5.1-6.2h6.9"
			/>
		<g>
			<path d="M142.8,62c1.1,0,2,0.9,2,2c0,1.1-0.9,2-2,2c-1.1,0-2-0.9-2-2C140.8,62.9,141.7,62,142.8,62z"/>
		</g>
		<g>
			<path d="M243.9,75.6c1.1,0,2-0.9,2-2c0-1.1-0.9-2-2-2c-1.1,0-2,0.9-2,2C242,74.7,242.8,75.6,243.9,75.6z"/>
		</g>
	</g>
</g>
<g>
	<g>
		<path class="st4" d="M171.9,55.4l5.6,4.7H191v8.8c-2.4,0-4.4,2-4.4,4.4c0,2.4,2,4.4,4.4,4.4v10.6c-2.4,0-4.4,2-4.4,4.4
			c0,2.4,2,4.4,4.4,4.4v4.3h52.9"/>
		<g>
			<path d="M170.6,56.9c-0.8-0.7-0.9-1.9-0.2-2.8c0.7-0.8,1.9-0.9,2.8-0.2c0.8,0.7,0.9,1.9,0.2,2.8
				C172.7,57.5,171.5,57.6,170.6,56.9z"/>
		</g>
		<g>
			<path d="M243.9,103.4c1.1,0,2-0.9,2-2s-0.9-2-2-2c-1.1,0-2,0.9-2,2S242.8,103.4,243.9,103.4z"/>
		</g>
	</g>
</g>
</svg>
